<svg width="115" height="160" viewBox="0 0 115 160" fill="none" xmlns="http://www.w3.org/2000/svg">
<path d="M3.49005 84.1904C2.61005 85.0004 1.87005 85.4704 0.840049 84.8904C0.0200493 84.4204 -0.239951 83.3404 0.240049 82.3604C5.56005 71.4604 13.2401 62.8704 24.3301 57.7304C29.7001 55.2404 35.1601 53.4504 41.0001 52.4704L54.72 50.1604C59.93 49.2804 64.9 48.4104 69.98 46.9404C80.14 44.0104 89.1101 38.5304 96.1701 30.5804C102.57 23.3704 107.4 15.0804 111.11 6.2104C111.47 5.3504 112.43 4.9704 113.16 5.1104C113.79 5.2404 114.8 6.1004 114.72 6.9704C113.24 22.1804 108.67 37.7704 99.37 50.1604C93.47 58.0204 85.94 64.2104 76.91 68.0204C56.16 76.7804 34.57 69.4604 14.16 77.8304C10.29 79.4204 6.64005 81.3004 3.50005 84.1804L3.49005 84.1904Z" fill="#EFE3D6"/>
<path d="M55.6993 35.42C65.4802 35.42 73.4093 27.491 73.4093 17.71C73.4093 7.92904 65.4802 0 55.6993 0C45.9183 0 37.9893 7.92904 37.9893 17.71C37.9893 27.491 45.9183 35.42 55.6993 35.42Z" fill="#EFE3D6"/>
<path d="M95.4101 71.0106C95.4101 71.0106 74.8801 93.7406 40.7401 88.7106C40.7401 88.7106 17.4301 85.4006 15.6501 96.1206C13.7701 107.441 58.1201 93.5606 41.0101 149.441C23.9001 205.331 146.86 16.6106 95.4101 71.0106Z" fill="#EFE3D6"/>
</svg>
