<svg width="161" height="79" viewBox="0 0 161 79" fill="none" xmlns="http://www.w3.org/2000/svg">
<path d="M112.954 41.1526C120.674 41.1526 126.932 34.8946 126.932 27.1749C126.932 19.4553 120.674 13.1973 112.954 13.1973C105.235 13.1973 98.9766 19.4553 98.9766 27.1749C98.9766 34.8946 105.235 41.1526 112.954 41.1526Z" fill="url(#paint0_linear_1991_50)" fill-opacity="0.4"/>
<path d="M13.9777 71.3948C21.6973 71.3948 27.9553 65.1368 27.9553 57.4171C27.9553 49.6975 21.6973 43.4395 13.9777 43.4395C6.25801 43.4395 0 49.6975 0 57.4171C0 65.1368 6.25801 71.3948 13.9777 71.3948Z" fill="url(#paint1_linear_1991_50)" fill-opacity="0.4"/>
<path d="M73.1355 77.2643C72.4426 77.9022 71.8543 78.2761 71.046 77.8142C70.3971 77.4458 70.1937 76.5935 70.5731 75.8182C74.7741 67.2237 80.8281 60.4384 89.582 56.3803C93.8215 54.4118 98.127 53.0041 102.735 52.2343L113.556 50.4143C117.669 49.7214 121.59 49.0286 125.598 47.8739C133.621 45.5644 140.687 41.2369 146.257 34.9629C151.305 29.2773 155.121 22.7339 158.046 15.734C158.327 15.0577 159.085 14.7553 159.657 14.8707C160.158 14.9697 160.955 15.6515 160.884 16.3389C159.718 28.337 156.111 40.6431 148.775 50.4197C144.124 56.6223 138.179 61.5051 131.053 64.5129C114.678 71.4247 97.6431 65.6511 81.5375 72.2495C78.4857 73.4977 75.6044 74.9879 73.13 77.2588L73.1355 77.2643Z" fill="url(#paint2_linear_1991_50)" fill-opacity="0.4"/>
<path d="M80.0299 7.85503C80.0299 7.85503 63.8308 25.7917 36.8927 21.8217C36.8927 21.8217 18.4996 19.2098 17.092 27.6723C15.6073 36.6077 50.6065 25.6488 37.1072 69.7483C23.6079 113.848 120.632 -35.0622 80.0299 7.86052V7.85503Z" fill="url(#paint3_linear_1991_50)" fill-opacity="0.4"/>
<defs>
<linearGradient id="paint0_linear_1991_50" x1="112.954" y1="13.1973" x2="112.954" y2="41.1526" gradientUnits="userSpaceOnUse">
<stop stop-color="#EFE3D6"/>
<stop offset="1" stop-color="#EFE3D6" stop-opacity="0"/>
</linearGradient>
<linearGradient id="paint1_linear_1991_50" x1="13.9777" y1="43.4395" x2="13.9777" y2="71.3948" gradientUnits="userSpaceOnUse">
<stop stop-color="#EFE3D6"/>
<stop offset="1" stop-color="#EFE3D6" stop-opacity="0"/>
</linearGradient>
<linearGradient id="paint2_linear_1991_50" x1="115.635" y1="14.8467" x2="115.635" y2="78.0199" gradientUnits="userSpaceOnUse">
<stop stop-color="#EFE3D6"/>
<stop offset="1" stop-color="#EFE3D6" stop-opacity="0"/>
</linearGradient>
<linearGradient id="paint3_linear_1991_50" x1="53.5388" y1="0" x2="53.5388" y2="78.0079" gradientUnits="userSpaceOnUse">
<stop stop-color="#EFE3D6"/>
<stop offset="1" stop-color="#EFE3D6" stop-opacity="0"/>
</linearGradient>
</defs>
</svg>
