<?xml version="1.0" encoding="UTF-8"?>
<svg id="Camada_2" data-name="Camada 2" xmlns="http://www.w3.org/2000/svg" viewBox="0 0 1222.69 459.94">
  <defs>
    <style>
      .cls-1 {
        fill: #f1e1d3;
      }
    </style>
  </defs>
  <g id="Camada_1-2" data-name="Camada 1">
    <path class="cls-1" d="M1153.39,278.04c-5.21,1.64-16.87,1.23-22.7,1.02-2.77-.1-5.26-.49-7.97-1.07-7.17-1.55-14.28-3.16-20.73-6.7-3.78-2.07-7.32-4.02-10.94-6.4-10.59-6.97-19.89-18.3-25.81-29.54-1.87-3.54-3.01-7.37-4.32-11.21-1.91-5.6-2.88-10.69-3.65-16.58l-.89-6.83c-.86-6.59.42-20.12,1.67-27.08,1.18-6.55,2.88-12.67,5.83-18.56,5.39-10.78,6.64-13.41,15.08-22.44,4.77-5.1,9.95-9.56,15.98-13.15,7.35-4.37,14.88-7.84,23.28-9.57,1.5-.31,3.03-.97,4.47-1.18l5.35-.8c4.3-.64,15.41-.57,20.08-.34,8.66.42,19.58,3.41,27.49,6.93,8.67,3.86,16.15,9.03,22.75,15.85,4.4,4.55,8.74,8.83,11.86,14.4,7.35,13.15,10.96,24.64,12.11,39.69l.42,5.47-.02,83.03c0,1.99-3.13,3.34-4.65,3.34l-23.5.04c-1.83,0-4.65-1.18-4.82-3.32-.28-3.63-.13-7.43-.2-11.04,0-.4-.54-1.26-.88-1.2s-1.05.37-1.35.62c-11.14,9.24-19.43,13.8-33.88,16.62ZM1178.58,228.31c5.44-7.8,8.74-16.4,9.64-25.74l.8-8.31c.16-1.71.17-3.34-.05-5.07l-.61-4.87c-1.23-9.79-4.49-18.59-10.25-26.53-2.92-4.03-6.01-7.26-10.19-10.04-6.01-4-14.03-7.47-21.25-8.01l-5.03-.38c-1.4-.11-2.59-.03-4.05.02-11.72.45-22.79,4.42-31.43,12.65-7.93,7.56-13.89,19.34-15.37,30.3-.61,4.5-1.35,8.7-.93,13.19.5,5.3.89,10.47,2.42,15.66,2.19,7.44,5.94,15.03,11.18,20.88,2.59,2.9,5.72,5.31,8.96,7.49,11.63,7.79,25.23,8.9,38.71,6.57,10.48-1.81,21.35-9.11,27.44-17.83ZM1048.08,125.79l2.64-7.4c.49-1.37,1.03-2.94,1.05-4.3.02-2.01-1.63-3.08-3.43-3.07l-26.67.05c-1.92,0-3.73,1.94-4.29,3.64l-4.51,13.54-11.78,35.32-4.88,14.62-2.87,8.96-2.95,8.88-5.58,17.12-4.8,14.28c-1.11,3.29-2.45,6.38-3.84,9.53-1.56,3.54-4.04,6.57-7.34,8.44-6.22,3.52-12.76-2.82-15.25-8.69-1.41-3.33-2.79-6.57-3.9-10.05l-6.18-19.43-4.15-12.46-1.99-5.98-9.33-28.07-5.14-15.75-4.37-12.54-5.8-17.21c-.83-2.45-2.49-4.2-5.27-4.19l-26.89.05c-1.74,0-3.24,1.96-2.67,3.65l8.02,23.66,4.88,14.97,10.62,30.73,1.24,3.44,6.78,20.92,2.71,8.48,9.8,26.95c1.28,3.52,2.76,6.76,4.38,10,2.92,5.84,6.84,10.7,11.56,15.1,5.94,5.53,11.16,8.12,19.37,9.8,1.38.28,3.16.05,4.59.19,3.54.36,10.15.08,13.53-.97l3.31-1.02c11.37-3.51,20.01-13.04,25.16-23.54,3.77-7.68,6.44-15.66,9.29-23.76l3.68-10.45,2.21-6.36,5.31-16.27,6.7-20.02,4.7-13.27,2.09-6.15,2.55-7.93,5.09-15.28,2.61-8.16ZM601.19,253.32c-1.97,2.63-4.43,4.65-6.74,6.77-4.19,3.85-14.43,10.41-19.75,12.61-2.11.87-4.14,1.73-6.31,2.36l-2.54.74c-6.28,1.82-12.7,3.07-19.33,3.3-4.12.14-14.38.21-17.94-.42l-7.98-1.4c-1.6-.28-3.31-.81-4.87-1.26l-3.36-.96c-3.91-1.12-7.48-2.83-11.05-4.74-14.83-7.91-23.14-15.37-32.55-29.39-2.43-3.62-4.16-7.28-5.61-11.34l-2.27-6.36c-3.31-9.3-4.86-20.67-4.57-30.54l.27-9.22.83-5.9c.88-6.29,1.85-9.4,3.78-15.33,2.69-8.25,6.48-15.66,11.69-22.56,2.72-3.6,5.41-6.93,8.72-10.01,3.83-3.56,7.66-6.65,12.05-9.59s9.34-5.04,14.37-7.22c5.84-2.53,12.02-3.66,18.31-4.77,3.76-.66,7.34-.83,11.16-.83h4.31c12.64-.04,26.24,3.61,37.35,9.23,6.16,3.11,11.46,7.01,16.71,11.37,1.6,1.33,2.89,2.82,4.32,4.37,7.66,8.29,13.63,17.8,17.07,28.62,2.07,6.53,4.2,12.78,4.57,19.61l.42,7.58.31,6.86c.09,1.96.22,11.84-3.07,11.85l-126.58.04c-.54,0-1.31.3-1.51.58-.24.33-.26,1.18-.15,1.7,1.53,7.06,4.51,13.24,8.49,19.21,4.53,6.79,10.68,11.68,18,15.19,11.58,5.54,25.66,6.01,37.87,2.35,6.23-1.87,12.07-5.5,16.76-9.95l3.53-3.35c1.08-1.02,2.09-3,4.03-2.6,1.61.33,3.4.86,4.94,1.45l9.7,3.71,8.5,3.03c1.45.52,2.87,1.17,4.28,1.84s1.95,2.49.99,3.77l-7.18,9.58ZM493.88,177.63h92.57c.99-.01,1.05-1.66.91-2.25-1.73-7.39-5.25-13.81-9.66-19.82-2.22-3.03-4.62-5.45-7.65-7.65-11.5-8.36-26.03-11.25-39.95-8.72-9.19,1.67-17.52,5.29-24.32,11.83-5.11,4.91-11.01,14.03-12.98,21.02l-.97,3.47c-.11.4.02,1.32.22,1.62s.86.5,1.82.5ZM858.62,244.61l-6.42,8.52c-1.94,2.58-4.38,4.69-6.83,6.85-4.78,4.21-10.02,7.51-15.58,10.67-6.74,3.84-14.13,5.62-21.7,7.2-3.14.66-6.05,1.08-9.25,1.2-3.93.14-16.3.32-19.53-.3l-8.74-1.68c-6.61-1.27-12.65-3.57-18.5-6.73-9.91-5.35-18.5-11.19-25.65-20.14-5.27-6.6-9.51-12.27-12.4-20.27-1.82-5.06-4.35-11.94-5.15-17.08l-1.23-7.83c-.67-4.28-.5-16-.31-20.7.08-1.88.55-3.8.78-5.64.32-2.64.67-5.11,1.35-7.64l1.48-5.5c4.6-17.1,16.55-33.71,31.18-43.76,2.84-1.95,5.57-3.83,8.73-5.25l8.2-3.69c1.06-.48,2.28-.94,3.43-1.31,8.06-2.62,17.19-4.17,25.77-4.17h3.92c5.82,0,12.37.58,17.95,1.99,5.96,1.51,11.53,3.31,17.19,5.89,14.75,6.74,26.79,18.03,34.84,32.04,3.66,6.37,6.04,12.87,7.85,19.89l1.2,4.63c.57,2.22,1.08,4.62,1.27,6.93l.35,4.34.32,4.72c.3,4.34.18,8.55.08,12.95-.04,1.74-.58,6.11-3.3,6.11h-89.77s-36.47,0-36.47,0c-.54,0-1.18.18-1.33.43-.19.32-.36,1.36-.23,1.83l1.17,4.21c1.78,6.39,5.09,11.88,8.96,17.24,3.25,4.5,7.49,8,12.35,10.74,7.68,4.32,12.86,6.01,21.73,6.78,7.41.64,14.6-.39,21.72-2.76,5.73-1.91,10.77-5.22,15.11-9.35,1.41-1.34,3.04-2.58,4.14-4.04,1.41-1.87,3-2.45,5.19-1.64l4.45,1.63,12.14,4.52c2.74,1.02,10.48,3.05,10.58,5.55.03.77-.44,1.83-1.03,2.62ZM836.94,177.69c1.09,0,1.47-1.14,1.34-1.72-1.78-7.9-5.41-14.65-10.34-21.06-3.79-4.92-8.84-8.81-14.51-11.4-6.6-3.02-11.01-4.37-18.26-4.89-7.25-.52-12.98-.07-19.9,1.92-8.67,2.5-16.47,7.31-22.08,14.35-4.95,6.22-8.71,12.69-10.42,20.48-.11.48-.25,1.19-.13,1.53s.98.79,1.44.79h92.87ZM683.37,70.99c0-2.6-.5-4.95-.21-7.48.39-3.42.75-11.42-4.51-11.43l-24.75-.04c-2.63,0-4.31,2.17-4.31,4.73v217.67c0,2.49,2.77,4.71,5.05,4.71l23.7.03c3.11,0,5.08-2.39,5.08-5.67l-.04-202.53ZM474.84,393.53v-53.48h9.17v53.48h-9.17ZM512.74,394.44c-3.87,0-7.31-.69-10.31-2.06-3.01-1.38-5.36-3.34-7.07-5.88-1.71-2.55-2.59-5.58-2.64-9.09h9.7c.05,1.78.48,3.37,1.3,4.77.81,1.4,1.99,2.51,3.52,3.32,1.53.82,3.36,1.22,5.5,1.22,1.83,0,3.43-.29,4.77-.88,1.35-.58,2.38-1.43,3.1-2.52.71-1.09,1.07-2.38,1.07-3.86,0-1.68-.38-3.07-1.15-4.16-.76-1.09-1.82-2.02-3.17-2.79-1.35-.76-2.93-1.44-4.74-2.02-1.81-.58-3.71-1.18-5.69-1.8-4.23-1.42-7.42-3.26-9.59-5.5-2.17-2.24-3.25-5.22-3.25-8.94,0-3.11.75-5.78,2.25-8.02s3.59-3.98,6.27-5.23c2.67-1.25,5.77-1.87,9.28-1.87s6.69.64,9.36,1.91c2.67,1.27,4.77,3.04,6.3,5.31,1.53,2.27,2.32,4.98,2.37,8.14h-9.78c0-1.32-.33-2.56-.99-3.7s-1.62-2.09-2.86-2.83c-1.25-.74-2.76-1.11-4.55-1.11-1.53-.05-2.89.19-4.09.73-1.2.53-2.15,1.3-2.87,2.29-.71.99-1.07,2.23-1.07,3.7s.33,2.61.99,3.55c.66.94,1.6,1.73,2.83,2.37,1.22.64,2.64,1.24,4.24,1.8,1.6.56,3.37,1.17,5.31,1.83,2.65.87,5.06,1.92,7.22,3.17,2.16,1.25,3.88,2.86,5.16,4.85,1.27,1.99,1.91,4.56,1.91,7.72,0,2.75-.72,5.31-2.14,7.68-1.43,2.37-3.52,4.28-6.27,5.73-2.75,1.45-6.16,2.18-10.24,2.18ZM540.39,393.53v-53.48h34.53v7.41h-25.36v15.36h23.07v7.26h-23.07v16.04h25.36v7.41h-34.53ZM584.55,393.53v-53.48h9.17l25.75,38.66v-38.66h9.17v53.48h-9.17l-25.75-38.58v38.58h-9.17ZM663.16,394.44c-5.3,0-9.87-1.16-13.71-3.48-3.85-2.32-6.79-5.55-8.82-9.7-2.04-4.15-3.06-8.95-3.06-14.4s1.02-10.33,3.06-14.48c2.04-4.15,4.98-7.4,8.82-9.74,3.85-2.34,8.42-3.51,13.71-3.51,6.37,0,11.56,1.57,15.58,4.7,4.02,3.13,6.57,7.55,7.64,13.26h-10.08c-.66-3.01-2.11-5.37-4.35-7.11-2.24-1.73-5.19-2.6-8.86-2.6-3.36,0-6.25.78-8.67,2.33-2.42,1.55-4.28,3.8-5.58,6.72-1.3,2.93-1.95,6.4-1.95,10.43s.65,7.48,1.95,10.35c1.3,2.88,3.16,5.09,5.58,6.65,2.42,1.55,5.31,2.33,8.67,2.33,3.67,0,6.61-.8,8.83-2.41,2.22-1.6,3.68-3.83,4.39-6.69h10.08c-1.07,5.4-3.62,9.64-7.64,12.72-4.02,3.08-9.22,4.62-15.58,4.62ZM655.67,413.7v-5.35h8.25c1.48,0,2.57-.23,3.28-.69s1.07-1.22,1.07-2.29c0-.92-.36-1.6-1.07-2.06-.71-.46-1.81-.69-3.28-.69h-4.43v-9.47h5.73v4.51c1.78,0,3.43.27,4.93.8,1.5.54,2.71,1.4,3.63,2.6.92,1.2,1.38,2.71,1.38,4.55s-.45,3.27-1.34,4.47-2.09,2.1-3.59,2.71c-1.5.61-3.15.92-4.93.92h-9.63ZM719.77,394.44c-5.25,0-9.83-1.16-13.75-3.48-3.92-2.32-6.99-5.55-9.2-9.7-2.22-4.15-3.32-8.98-3.32-14.48s1.11-10.25,3.32-14.4c2.22-4.15,5.28-7.4,9.2-9.74,3.92-2.34,8.51-3.51,13.75-3.51s9.77,1.17,13.71,3.51c3.95,2.34,7.03,5.59,9.24,9.74,2.22,4.15,3.32,8.95,3.32,14.4s-1.11,10.33-3.32,14.48-5.3,7.39-9.24,9.7c-3.95,2.32-8.52,3.48-13.71,3.48ZM719.77,386.19c3.36,0,6.33-.78,8.9-2.33,2.57-1.55,4.56-3.78,5.96-6.68,1.4-2.9,2.1-6.37,2.1-10.39s-.7-7.49-2.1-10.39c-1.4-2.9-3.39-5.13-5.96-6.69-2.57-1.55-5.54-2.33-8.9-2.33s-6.39.78-8.94,2.33c-2.55,1.55-4.52,3.78-5.92,6.69s-2.1,6.37-2.1,10.39.7,7.49,2.1,10.39,3.37,5.13,5.92,6.68c2.55,1.55,5.53,2.33,8.94,2.33ZM724.66,336.08c-1.43,0-2.63-.29-3.63-.88-.99-.58-1.92-1.17-2.79-1.76-.87-.58-1.81-.88-2.83-.88-.87,0-1.59.28-2.18.84-.59.56-.96,1.43-1.11,2.6h-4.97c.46-3.16,1.45-5.49,2.98-6.99,1.53-1.5,3.41-2.25,5.65-2.25,1.43,0,2.64.29,3.63.88.99.59,1.92,1.17,2.79,1.76s1.81.88,2.83.88c.87,0,1.59-.28,2.18-.84.58-.56.96-1.42,1.11-2.6h5.04c-.46,3.16-1.47,5.49-3.02,6.99-1.55,1.5-3.45,2.25-5.69,2.25ZM754.99,393.53v-53.48h34.53v7.41h-25.36v15.36h23.07v7.26h-23.07v16.04h25.36v7.41h-34.53ZM817.1,394.44c-3.87,0-7.31-.69-10.31-2.06-3.01-1.38-5.36-3.34-7.07-5.88-1.71-2.55-2.59-5.58-2.64-9.09h9.7c.05,1.78.48,3.37,1.3,4.77.81,1.4,1.99,2.51,3.52,3.32,1.53.82,3.36,1.22,5.5,1.22,1.83,0,3.43-.29,4.77-.88,1.35-.58,2.38-1.43,3.1-2.52.71-1.09,1.07-2.38,1.07-3.86,0-1.68-.38-3.07-1.15-4.16-.76-1.09-1.82-2.02-3.17-2.79-1.35-.76-2.93-1.44-4.74-2.02-1.81-.58-3.71-1.18-5.69-1.8-4.23-1.42-7.42-3.26-9.59-5.5-2.17-2.24-3.25-5.22-3.25-8.94,0-3.11.75-5.78,2.25-8.02,1.5-2.24,3.59-3.98,6.27-5.23,2.67-1.25,5.77-1.87,9.28-1.87s6.69.64,9.36,1.91c2.67,1.27,4.77,3.04,6.3,5.31,1.53,2.27,2.32,4.98,2.37,8.14h-9.78c0-1.32-.33-2.56-.99-3.7s-1.62-2.09-2.86-2.83c-1.25-.74-2.76-1.11-4.55-1.11-1.53-.05-2.89.19-4.09.73-1.2.53-2.15,1.3-2.87,2.29-.71.99-1.07,2.23-1.07,3.7s.33,2.61.99,3.55c.66.94,1.6,1.73,2.83,2.37,1.22.64,2.64,1.24,4.24,1.8,1.6.56,3.37,1.17,5.31,1.83,2.65.87,5.06,1.92,7.22,3.17,2.16,1.25,3.88,2.86,5.16,4.85,1.27,1.99,1.91,4.56,1.91,7.72,0,2.75-.72,5.31-2.14,7.68-1.43,2.37-3.52,4.28-6.27,5.73-2.75,1.45-6.16,2.18-10.24,2.18ZM863.4,393.53v-53.48h19.25c4.28,0,7.83.73,10.66,2.18,2.83,1.45,4.91,3.4,6.26,5.85,1.35,2.44,2.03,5.25,2.03,8.4,0,2.95-.66,5.65-1.99,8.1-1.32,2.44-3.39,4.43-6.19,5.96-2.8,1.53-6.39,2.29-10.77,2.29h-10.08v20.7h-9.17ZM872.56,365.34h9.63c3.56,0,6.14-.8,7.72-2.41,1.58-1.6,2.37-3.78,2.37-6.53s-.79-4.98-2.37-6.53c-1.58-1.55-4.15-2.33-7.72-2.33h-9.63v17.8ZM900.07,393.53l19.63-53.48h10.24l19.56,53.48h-9.7l-15.05-42.78-15.05,42.78h-9.63ZM908.85,380.92l2.45-7.26h26.36l2.44,7.26h-31.25ZM956.83,393.53v-53.48h19.18c4.28,0,7.79.73,10.54,2.18,2.75,1.45,4.8,3.39,6.15,5.81,1.35,2.42,2.02,5.16,2.02,8.21,0,2.85-.66,5.5-1.99,7.95-1.33,2.44-3.38,4.41-6.15,5.88-2.78,1.48-6.36,2.22-10.73,2.22h-9.86v21.24h-9.17ZM966,365.49h9.47c3.36,0,5.85-.83,7.45-2.48,1.6-1.65,2.41-3.83,2.41-6.53s-.79-4.77-2.37-6.38c-1.58-1.6-4.1-2.41-7.56-2.41h-9.4v17.8ZM984.71,393.53l-11.23-23.61h10.01l11.77,23.61h-10.54ZM1000.6,393.53l19.63-53.48h10.24l19.56,53.48h-9.7l-15.05-42.78-15.05,42.78h-9.63ZM1009.39,380.92l2.45-7.26h26.36l2.44,7.26h-31.25ZM1076.01,393.53v-53.48h19.25c4.28,0,7.83.73,10.66,2.18,2.83,1.45,4.91,3.4,6.26,5.85,1.35,2.44,2.03,5.25,2.03,8.4,0,2.95-.66,5.65-1.99,8.1s-3.39,4.43-6.19,5.96c-2.8,1.53-6.39,2.29-10.77,2.29h-10.08v20.7h-9.17ZM1085.18,365.34h9.63c3.56,0,6.14-.8,7.72-2.41,1.58-1.6,2.37-3.78,2.37-6.53s-.79-4.98-2.37-6.53c-1.58-1.55-4.15-2.33-7.72-2.33h-9.63v17.8ZM1145.91,394.44c-5.3,0-9.87-1.16-13.71-3.48-3.85-2.32-6.79-5.55-8.82-9.7-2.04-4.15-3.06-8.95-3.06-14.4s1.02-10.33,3.06-14.48c2.04-4.15,4.98-7.4,8.82-9.74,3.85-2.34,8.42-3.51,13.71-3.51,6.37,0,11.56,1.57,15.58,4.7,4.02,3.13,6.57,7.55,7.64,13.26h-10.08c-.66-3.01-2.11-5.37-4.35-7.11-2.24-1.73-5.19-2.6-8.86-2.6-3.36,0-6.25.78-8.67,2.33-2.42,1.55-4.28,3.8-5.58,6.72-1.3,2.93-1.95,6.4-1.95,10.43s.65,7.48,1.95,10.35c1.3,2.88,3.16,5.09,5.58,6.65,2.42,1.55,5.31,2.33,8.67,2.33,3.67,0,6.61-.8,8.83-2.41,2.22-1.6,3.68-3.83,4.39-6.69h10.08c-1.07,5.4-3.62,9.64-7.64,12.72-4.02,3.08-9.22,4.62-15.58,4.62ZM1178.07,393.53v-53.48h17.27c6.21,0,11.35,1.09,15.4,3.28,4.05,2.19,7.05,5.28,9.01,9.28,1.96,4,2.94,8.75,2.94,14.25s-.98,10.1-2.94,14.1c-1.96,4-4.97,7.09-9.01,9.28-4.05,2.19-9.18,3.29-15.4,3.29h-17.27ZM1187.24,385.74h7.64c4.58,0,8.23-.75,10.92-2.25,2.7-1.5,4.62-3.67,5.77-6.49,1.15-2.83,1.72-6.2,1.72-10.12s-.57-7.37-1.72-10.2c-1.15-2.83-3.07-5.02-5.77-6.57s-6.34-2.33-10.92-2.33h-7.64v37.97ZM374.08,123.39l-6.77-59.11c-.57-4.98-2.69-8.77-6.75-11.78-10.04-7.43-20.15-13.84-31.46-19.66C277.88,6.48,223.07-2.78,165.46.7c-41.87,2.53-82.09,13.33-119.19,32.51-11.09,5.73-21.11,12.02-30.78,19.5-4.34,3.36-6.76,7.63-6.63,13.3C2.65,107.32-.65,148.33.11,190.29c1.67,93.25,32.11,161.8,107.2,217.75,24.66,18.37,50.16,34.67,76.38,50.57,3.06,1.85,6.3,1.74,9.35-.12,22.88-13.96,44.96-27.99,67.18-43.8,19.95-14.2,37.74-29.29,53.77-47.25,45.3-50.77,60.82-110.76,62.39-177.73.52-22.39.26-44.07-2.29-66.31ZM342.83,236.62c-11.47,50.19-36.96,95.62-74.92,130.48-22.52,20.69-48.06,37.37-75.9,50.57-2.26,1.07-5.13,1.16-6.99.28-3.68-1.73-7.31-3.53-10.91-5.39,57.6-62.26,194.81-283.48,105.79-189.38,0,0-47.37,52.45-126.13,40.83,0,0-53.79-7.63-57.89,17.1-4.31,25.97,96.76-5.51,59.18,120.79-20.59-12.47-39.67-27.28-56.65-44.64-32.52-33.22-54.46-75.06-64.84-120.29-12.97-56.55-11.13-114.06-4.56-171.23,1.1-2.73,4.3-5.16,6.8-6.88C123.13-1.22,256.73-.62,343.45,60.83c3.24,2.29,4.07,4.88,4.48,8.64,6.3,56.79,7.73,111.01-5.1,167.15ZM320.83,71.16c-1.68-.34-3.89.55-4.72,2.53-8.56,20.48-19.71,39.6-34.48,56.23-16.29,18.35-36.96,30.99-60.41,37.75-11.72,3.38-23.18,5.4-35.2,7.42l-31.64,5.32c-13.47,2.26-26.06,6.37-38.46,12.13-25.58,11.87-43.29,31.7-55.58,56.84-1.11,2.27-.51,4.76,1.38,5.84,2.37,1.35,4.08.26,6.11-1.61,7.24-6.66,15.66-11,24.59-14.65,47.09-19.29,96.9-2.42,144.78-22.63,20.84-8.79,38.21-23.07,51.81-41.21,21.44-28.59,31.99-64.57,35.41-99.66.2-2.02-2.13-4-3.59-4.3ZM176.4,139.32c21.6,6.57,44.43-5.61,51-27.21,6.57-21.6-5.61-44.43-27.21-51-21.6-6.57-44.43,5.61-51,27.21-6.57,21.6,5.61,44.43,27.21,51Z"/>
  </g>
</svg>